<svg xmlns="http://www.w3.org/2000/svg" viewBox="0 0 520 120" fill="none" role="img" aria-label="bazar.ccaria">
  <g transform="translate(8, 8)">
    <rect width="104" height="104" rx="24" fill="#2C2825"/>
    <path d="M24 84h56c0-7-5-12-12-12H36c-7 0-12 5-12 12z" fill="#544C44"/>
    <path d="M36 72V50c0-9 7-16 16-16s16 7 16 16v22" stroke="#F3F1ED" stroke-width="2.8" stroke-linecap="round" stroke-linejoin="round"/>
    <path d="M32 72h40" stroke="#C4704A" stroke-width="3.2" stroke-linecap="round"/>
    <path d="M40 50c2-5 7-9 12-9s10 4 12 9" stroke="#D4896A" stroke-width="2.2" stroke-linecap="round"/>
    <path d="M62 36c9 2 12 9 9 16-7-2-10-9-9-16z" fill="#8A9D7D"/>
    <path d="M62 50c-3-5-3-10 0-14" stroke="#6B7F5E" stroke-width="1.3" stroke-linecap="round"/>
    <path d="M52 26v9" stroke="#8A9D7D" stroke-width="1.8" stroke-linecap="round"/>
    <circle cx="52" cy="22" r="2.5" fill="#C4704A"/>
  </g>
  <text x="132" y="52" font-family="Poppins, Montserrat, system-ui, sans-serif" font-size="28" font-weight="600" fill="#F3F1ED" letter-spacing="-0.5">bazar.ccaria</text>
  <text x="132" y="82" font-family="Poppins, Montserrat, system-ui, sans-serif" font-size="18" font-weight="400" fill="#8A9D7D" letter-spacing="2.5">ARTIGIANATO</text>
  <rect x="132" y="92" width="72" height="3" rx="1.5" fill="#C4704A"/>
</svg>
