<svg xmlns="http://www.w3.org/2000/svg" viewBox="0 0 120 120" fill="none" role="img" aria-label="bazar.ccaria">
  <rect width="120" height="120" rx="28" fill="#F3F1ED"/>
  <!-- Pietra / base -->
  <path d="M28 88h64c0-8-6-14-14-14H42c-8 0-14 6-14 14z" fill="#D4CDC2"/>
  <ellipse cx="60" cy="88" rx="32" ry="5" fill="#2C2825" opacity="0.12"/>
  <!-- Vaso stilizzato -->
  <path d="M42 74V52c0-10 8-18 18-18s18 8 18 18v22" stroke="#2C2825" stroke-width="3" stroke-linecap="round" stroke-linejoin="round"/>
  <path d="M38 74h44" stroke="#C4704A" stroke-width="3.5" stroke-linecap="round"/>
  <path d="M46 52c2-6 8-10 14-10s12 4 14 10" stroke="#C4704A" stroke-width="2.5" stroke-linecap="round"/>
  <!-- Foglia -->
  <path d="M72 38c10 2 14 10 10 18-8-2-12-10-10-18z" fill="#6B7F5E"/>
  <path d="M72 54c-4-6-4-12 0-16" stroke="#526347" stroke-width="1.5" stroke-linecap="round"/>
  <!-- Goccia acqua / fontana -->
  <path d="M60 28v10" stroke="#6B7F5E" stroke-width="2" stroke-linecap="round"/>
  <circle cx="60" cy="24" r="3" fill="#C4704A"/>
</svg>
